<svg xmlns="http://www.w3.org/2000/svg" xmlns:xlink="http://www.w3.org/1999/xlink" width="1000" zoomAndPan="magnify" viewBox="0 0 750 749.999995" height="1000" preserveAspectRatio="xMidYMid meet" version="1.0"><path fill="#000000" d="M 375 0 C 167.886719 0 0 167.886719 0 375 C 0 582.113281 167.886719 750 375 750 C 582.113281 750 750 582.113281 750 375 C 750 167.886719 582.113281 0 375 0 Z M 261.824219 558.824219 L 183 558.824219 L 183 309.074219 L 261.824219 309.074219 Z M 220.386719 277.835938 L 219.824219 277.835938 C 191.289062 277.835938 172.800781 258.75 172.800781 234.523438 C 172.800781 210.300781 191.851562 191.175781 220.949219 191.175781 C 250.050781 191.175781 267.898438 209.8125 268.5 234.488281 C 268.5 258.675781 250.050781 277.835938 220.425781 277.835938 Z M 577.199219 558.824219 L 487.800781 558.824219 L 487.800781 429.5625 C 487.800781 395.738281 473.8125 372.636719 443.0625 372.636719 C 419.550781 372.636719 406.460938 388.238281 400.386719 403.238281 C 398.101562 408.636719 398.476562 416.136719 398.476562 423.636719 L 398.476562 558.789062 L 309.9375 558.789062 C 309.9375 558.789062 311.0625 329.851562 309.9375 309.039062 L 398.476562 309.039062 L 398.476562 348.226562 C 403.6875 331.085938 432 306.636719 477.148438 306.636719 C 533.175781 306.636719 577.199219 342.5625 577.199219 419.925781 Z M 577.199219 558.824219 " fill-opacity="1" fill-rule="nonzero"/></svg>