<svg xmlns="http://www.w3.org/2000/svg" xmlns:xlink="http://www.w3.org/1999/xlink" width="1000" zoomAndPan="magnify" viewBox="0 0 750 749.999995" height="1000" preserveAspectRatio="xMidYMid meet" version="1.0"><defs><clipPath id="117164e0ba"><path d="M 0 1.585938 L 748.5 1.585938 L 748.5 750 L 0 750 Z M 0 1.585938 " clip-rule="nonzero"/></clipPath></defs><g clip-path="url(#117164e0ba)"><path fill="#000000" d="M 374.25 750.085938 C 580.941406 750.085938 748.5 582.527344 748.5 375.835938 C 748.5 169.140625 580.941406 1.585938 374.25 1.585938 C 167.558594 1.585938 0 169.140625 0 375.835938 C 0 582.527344 167.558594 750.085938 374.25 750.085938 Z M 204.273438 216.613281 L 374.25 352.597656 L 544.226562 216.613281 L 549.132812 212.523438 L 199.363281 212.523438 Z M 567.320312 244.609375 L 573.851562 239.171875 L 573.851562 521 C 573.851562 531.019531 565.726562 539.144531 555.703125 539.144531 L 192.796875 539.144531 C 182.773438 539.144531 174.648438 531.019531 174.648438 521 L 174.648438 239.171875 L 181.179688 244.609375 L 181.460938 244.839844 L 362.914062 390.003906 C 369.542969 395.304688 378.957031 395.304688 385.585938 390.003906 L 567.042969 244.839844 Z M 567.320312 244.609375 " fill-opacity="1" fill-rule="evenodd"/></g></svg>