<svg xmlns="http://www.w3.org/2000/svg" xmlns:xlink="http://www.w3.org/1999/xlink" width="1000" zoomAndPan="magnify" viewBox="0 0 750 749.999995" height="1000" preserveAspectRatio="xMidYMid meet" version="1.0"><path fill="#000000" d="M 750 375 C 750 381.136719 749.847656 387.269531 749.546875 393.398438 C 749.246094 399.53125 748.796875 405.648438 748.195312 411.757812 C 747.59375 417.863281 746.839844 423.953125 745.941406 430.023438 C 745.039062 436.09375 743.992188 442.140625 742.792969 448.160156 C 741.597656 454.179688 740.253906 460.164062 738.761719 466.117188 C 737.269531 472.070312 735.632812 477.984375 733.851562 483.855469 C 732.070312 489.730469 730.144531 495.554688 728.078125 501.332031 C 726.011719 507.113281 723.804688 512.835938 721.453125 518.507812 C 719.105469 524.175781 716.621094 529.785156 713.996094 535.332031 C 711.371094 540.882812 708.613281 546.359375 705.71875 551.773438 C 702.828125 557.1875 699.804688 562.523438 696.648438 567.789062 C 693.492188 573.050781 690.210938 578.234375 686.800781 583.339844 C 683.390625 588.441406 679.859375 593.457031 676.203125 598.386719 C 672.546875 603.316406 668.773438 608.152344 664.878906 612.898438 C 660.984375 617.640625 656.976562 622.289062 652.855469 626.835938 C 648.734375 631.382812 644.503906 635.824219 640.164062 640.164062 C 635.824219 644.503906 631.382812 648.734375 626.835938 652.855469 C 622.289062 656.976562 617.640625 660.984375 612.898438 664.878906 C 608.152344 668.773438 603.316406 672.546875 598.386719 676.203125 C 593.457031 679.859375 588.441406 683.390625 583.339844 686.800781 C 578.234375 690.210938 573.050781 693.492188 567.789062 696.648438 C 562.523438 699.804688 557.1875 702.828125 551.773438 705.71875 C 546.359375 708.613281 540.882812 711.371094 535.332031 713.996094 C 529.785156 716.621094 524.175781 719.105469 518.507812 721.453125 C 512.835938 723.804688 507.113281 726.011719 501.332031 728.078125 C 495.554688 730.148438 489.730469 732.070312 483.855469 733.851562 C 477.984375 735.632812 472.070312 737.269531 466.117188 738.761719 C 460.164062 740.253906 454.179688 741.597656 448.160156 742.792969 C 442.140625 743.992188 436.09375 745.039062 430.023438 745.941406 C 423.953125 746.839844 417.863281 747.59375 411.757812 748.195312 C 405.648438 748.796875 399.53125 749.246094 393.398438 749.546875 C 387.269531 749.847656 381.136719 750 375 750 C 368.863281 750 362.730469 749.847656 356.597656 749.546875 C 350.46875 749.246094 344.351562 748.796875 338.242188 748.195312 C 332.136719 747.59375 326.046875 746.839844 319.976562 745.941406 C 313.90625 745.039062 307.859375 743.992188 301.839844 742.792969 C 295.820312 741.597656 289.835938 740.253906 283.882812 738.761719 C 277.929688 737.269531 272.015625 735.632812 266.144531 733.851562 C 260.269531 732.070312 254.445312 730.144531 248.667969 728.078125 C 242.886719 726.011719 237.164062 723.804688 231.492188 721.453125 C 225.824219 719.105469 220.214844 716.621094 214.667969 713.996094 C 209.117188 711.371094 203.640625 708.613281 198.226562 705.71875 C 192.8125 702.828125 187.476562 699.804688 182.210938 696.648438 C 176.949219 693.492188 171.765625 690.210938 166.660156 686.800781 C 161.558594 683.390625 156.542969 679.859375 151.613281 676.203125 C 146.683594 672.546875 141.847656 668.773438 137.101562 664.878906 C 132.359375 660.984375 127.710938 656.976562 123.164062 652.855469 C 118.617188 648.734375 114.175781 644.503906 109.835938 640.164062 C 105.496094 635.824219 101.265625 631.382812 97.144531 626.835938 C 93.023438 622.289062 89.015625 617.640625 85.121094 612.898438 C 81.226562 608.152344 77.453125 603.316406 73.796875 598.386719 C 70.140625 593.457031 66.609375 588.441406 63.199219 583.339844 C 59.789062 578.234375 56.507812 573.050781 53.351562 567.789062 C 50.195312 562.523438 47.171875 557.1875 44.28125 551.773438 C 41.386719 546.359375 38.628906 540.882812 36.003906 535.332031 C 33.378906 529.785156 30.894531 524.175781 28.546875 518.507812 C 26.195312 512.835938 23.988281 507.113281 21.921875 501.332031 C 19.851562 495.554688 17.929688 489.730469 16.148438 483.855469 C 14.367188 477.984375 12.730469 472.070312 11.238281 466.117188 C 9.746094 460.164062 8.402344 454.179688 7.207031 448.160156 C 6.007812 442.140625 4.960938 436.09375 4.058594 430.023438 C 3.160156 423.953125 2.40625 417.863281 1.804688 411.757812 C 1.203125 405.648438 0.753906 399.53125 0.453125 393.398438 C 0.152344 387.269531 0 381.136719 0 375 C 0 368.863281 0.152344 362.730469 0.453125 356.597656 C 0.753906 350.46875 1.203125 344.351562 1.804688 338.242188 C 2.40625 332.136719 3.160156 326.046875 4.058594 319.976562 C 4.960938 313.90625 6.007812 307.859375 7.207031 301.839844 C 8.402344 295.820312 9.746094 289.835938 11.238281 283.882812 C 12.730469 277.929688 14.367188 272.015625 16.148438 266.144531 C 17.929688 260.269531 19.851562 254.445312 21.921875 248.667969 C 23.988281 242.886719 26.195312 237.164062 28.546875 231.492188 C 30.894531 225.824219 33.378906 220.214844 36.003906 214.667969 C 38.628906 209.117188 41.386719 203.640625 44.28125 198.226562 C 47.171875 192.8125 50.195312 187.476562 53.351562 182.210938 C 56.507812 176.949219 59.789062 171.765625 63.199219 166.660156 C 66.609375 161.558594 70.140625 156.542969 73.796875 151.613281 C 77.453125 146.683594 81.226562 141.847656 85.121094 137.101562 C 89.015625 132.359375 93.023438 127.710938 97.144531 123.164062 C 101.265625 118.617188 105.496094 114.175781 109.835938 109.835938 C 114.175781 105.496094 118.617188 101.265625 123.164062 97.144531 C 127.710938 93.023438 132.359375 89.015625 137.101562 85.121094 C 141.847656 81.226562 146.683594 77.453125 151.613281 73.796875 C 156.542969 70.140625 161.558594 66.609375 166.660156 63.199219 C 171.765625 59.789062 176.949219 56.507812 182.210938 53.351562 C 187.476562 50.195312 192.8125 47.171875 198.226562 44.28125 C 203.640625 41.386719 209.117188 38.628906 214.667969 36.003906 C 220.214844 33.378906 225.824219 30.894531 231.492188 28.546875 C 237.164062 26.195312 242.886719 23.988281 248.667969 21.921875 C 254.445312 19.851562 260.269531 17.929688 266.144531 16.148438 C 272.015625 14.367188 277.929688 12.730469 283.882812 11.238281 C 289.835938 9.746094 295.820312 8.402344 301.839844 7.207031 C 307.859375 6.007812 313.90625 4.960938 319.976562 4.058594 C 326.046875 3.160156 332.136719 2.40625 338.242188 1.804688 C 344.351562 1.203125 350.46875 0.753906 356.597656 0.453125 C 362.730469 0.152344 368.863281 0 375 0 C 381.136719 0 387.269531 0.152344 393.398438 0.453125 C 399.53125 0.753906 405.648438 1.203125 411.757812 1.804688 C 417.863281 2.40625 423.953125 3.160156 430.023438 4.058594 C 436.09375 4.960938 442.140625 6.007812 448.160156 7.207031 C 454.179688 8.402344 460.164062 9.746094 466.117188 11.238281 C 472.070312 12.730469 477.984375 14.367188 483.855469 16.148438 C 489.730469 17.929688 495.554688 19.851562 501.332031 21.921875 C 507.113281 23.988281 512.835938 26.195312 518.507812 28.546875 C 524.175781 30.894531 529.785156 33.378906 535.332031 36.003906 C 540.882812 38.628906 546.359375 41.386719 551.773438 44.28125 C 557.1875 47.171875 562.523438 50.195312 567.789062 53.351562 C 573.050781 56.507812 578.234375 59.789062 583.339844 63.199219 C 588.441406 66.609375 593.457031 70.140625 598.386719 73.796875 C 603.316406 77.453125 608.152344 81.226562 612.898438 85.121094 C 617.640625 89.015625 622.289062 93.023438 626.835938 97.144531 C 631.382812 101.265625 635.824219 105.496094 640.164062 109.835938 C 644.503906 114.175781 648.734375 118.617188 652.855469 123.164062 C 656.976562 127.710938 660.984375 132.359375 664.878906 137.101562 C 668.773438 141.847656 672.546875 146.683594 676.203125 151.613281 C 679.859375 156.542969 683.390625 161.558594 686.800781 166.660156 C 690.210938 171.765625 693.492188 176.949219 696.648438 182.210938 C 699.804688 187.476562 702.828125 192.8125 705.71875 198.226562 C 708.613281 203.640625 711.371094 209.117188 713.996094 214.667969 C 716.621094 220.214844 719.105469 225.824219 721.453125 231.492188 C 723.804688 237.164062 726.011719 242.886719 728.078125 248.667969 C 730.148438 254.445312 732.070312 260.269531 733.851562 266.144531 C 735.632812 272.015625 737.269531 277.929688 738.761719 283.882812 C 740.253906 289.835938 741.597656 295.820312 742.792969 301.839844 C 743.992188 307.859375 745.039062 313.90625 745.941406 319.976562 C 746.839844 326.046875 747.59375 332.136719 748.195312 338.242188 C 748.796875 344.351562 749.246094 350.46875 749.546875 356.597656 C 749.847656 362.730469 750 368.863281 750 375 Z M 750 375 " fill-opacity="1" fill-rule="nonzero"/><path fill="#ffffff" d="M 348.835938 398.546875 C 286.917969 339.246094 296.511719 311.335938 296.511719 311.335938 C 321.800781 286.917969 318.3125 254.652344 318.3125 254.652344 C 305.234375 237.210938 292.152344 219.765625 279.070312 202.324219 C 279.070312 202.324219 261.628906 173.546875 234.59375 189.246094 C 162.210938 231.976562 184.882812 305.234375 184.882812 305.234375 C 184.882812 306.105469 204.941406 368.023438 296.511719 453.488281 C 388.082031 539.824219 454.359375 562.5 454.359375 562.5 C 454.359375 562.5 529.359375 586.917969 565.117188 518.023438 C 578.199219 491.859375 548.546875 471.800781 548.546875 471.800781 C 530.234375 456.976562 511.917969 443.023438 493.605469 429.070312 C 493.605469 429.070312 460.464844 423.835938 437.789062 449.128906 C 437.789062 450 409.882812 457.847656 348.835938 398.546875 Z M 348.835938 398.546875 " fill-opacity="1" fill-rule="nonzero"/></svg>