<svg xmlns="http://www.w3.org/2000/svg" xmlns:xlink="http://www.w3.org/1999/xlink" width="1000" zoomAndPan="magnify" viewBox="0 0 750 749.999995" height="1000" preserveAspectRatio="xMidYMid meet" version="1.0"><path fill="#7fd957" d="M 279.1875 575.085938 C 279.1875 575.085938 250.765625 591.625 299.414062 597.222656 C 358.355469 603.941406 388.457031 602.972656 453.402344 590.675781 C 453.402344 590.675781 470.476562 601.378906 494.335938 610.660156 C 348.75 673.0625 164.835938 607.042969 279.1875 575.085938 " fill-opacity="1" fill-rule="nonzero"/><path fill="#7fd957" d="M 261.394531 493.667969 C 261.394531 493.667969 229.519531 517.269531 278.203125 522.308594 C 341.148438 528.789062 390.871094 529.328125 476.894531 512.746094 C 476.894531 512.746094 488.800781 524.828125 507.515625 531.417969 C 331.480469 582.882812 135.421875 535.488281 261.390625 493.667969 " fill-opacity="1" fill-rule="nonzero"/><path fill="#7fd957" d="M 411.371094 355.535156 C 447.242188 396.855469 401.9375 434.023438 401.9375 434.023438 C 401.9375 434.023438 493.042969 386.992188 451.207031 328.101562 C 412.125 273.191406 382.171875 245.910156 544.378906 151.839844 C 544.378906 151.839844 289.773438 215.417969 411.371094 355.535156 " fill-opacity="1" fill-rule="nonzero"/><path fill="#7fd957" d="M 603.917969 635.3125 C 603.917969 635.3125 624.957031 652.648438 580.769531 666.0625 C 496.726562 691.515625 230.984375 699.203125 157.171875 667.074219 C 130.640625 655.535156 180.40625 639.511719 196.058594 636.132812 C 212.382812 632.601562 221.710938 633.269531 221.710938 633.269531 C 192.199219 612.46875 30.964844 674.074219 139.8125 691.730469 C 436.648438 739.859375 680.917969 670.046875 603.917969 635.3125 " fill-opacity="1" fill-rule="nonzero"/><path fill="#7fd957" d="M 292.851562 409.300781 C 292.851562 409.300781 157.683594 441.410156 244.988281 453.058594 C 281.847656 458.011719 355.339844 456.890625 423.773438 451.140625 C 479.714844 446.425781 535.894531 436.390625 535.894531 436.390625 C 535.894531 436.390625 516.171875 444.855469 501.894531 454.585938 C 364.621094 490.699219 99.460938 473.902344 175.796875 436.972656 C 240.363281 405.769531 292.851562 409.300781 292.851562 409.300781 " fill-opacity="1" fill-rule="nonzero"/><path fill="#7fd957" d="M 535.335938 544.832031 C 674.871094 472.328125 610.335938 402.648438 565.308594 412.035156 C 554.285156 414.339844 549.355469 416.320312 549.355469 416.320312 C 549.355469 416.320312 553.445312 409.90625 561.285156 407.128906 C 650.367188 375.816406 718.882812 499.503906 532.515625 548.492188 C 532.515625 548.492188 534.691406 546.554688 535.335938 544.832031 " fill-opacity="1" fill-rule="nonzero"/><path fill="#7fd957" d="M 451.207031 -0.0625 C 451.207031 -0.0625 528.488281 77.242188 377.90625 196.109375 C 257.171875 291.453125 350.386719 345.824219 377.863281 407.945312 C 307.382812 344.359375 255.664062 288.375 290.363281 236.285156 C 341.300781 159.804688 482.386719 122.726562 451.207031 -0.0625 " fill-opacity="1" fill-rule="nonzero"/><path fill="#7fd957" d="M 306.5625 741.320312 C 440.503906 749.890625 646.164062 736.5625 651.027344 673.191406 C 651.027344 673.191406 641.664062 697.199219 540.347656 716.277344 C 426.03125 737.789062 285.03125 735.292969 201.417969 721.488281 C 201.417969 721.488281 218.535156 735.660156 306.558594 741.320312 " fill-opacity="1" fill-rule="nonzero"/></svg>