<svg xmlns="http://www.w3.org/2000/svg" xmlns:xlink="http://www.w3.org/1999/xlink" width="1000" zoomAndPan="magnify" viewBox="0 0 750 749.999995" height="1000" preserveAspectRatio="xMidYMid meet" version="1.0"><defs><clipPath id="13418d8b40"><path d="M 0 0.894531 L 749.25 0.894531 L 749.25 750 L 0 750 Z M 0 0.894531 " clip-rule="nonzero"/></clipPath></defs><g clip-path="url(#13418d8b40)"><path fill="#ffd600" d="M 0 0.894531 L 749.25 0.894531 L 749.25 750.144531 L 0 750.144531 Z M 0 0.894531 " fill-opacity="1" fill-rule="nonzero"/></g><path fill="#000001" d="M 489.882812 561.726562 C 504.285156 585.121094 519.9375 607.535156 553.09375 607.535156 C 580.9375 607.535156 595.550781 593.695312 595.550781 574.546875 C 595.550781 551.632812 580.441406 543.496094 549.804688 530.15625 L 533.007812 522.996094 C 484.535156 502.433594 452.296875 476.667969 452.296875 422.242188 C 452.296875 372.085938 490.695312 333.914062 550.699219 333.914062 C 593.425781 333.914062 624.125 348.710938 646.269531 387.464844 L 593.945312 420.910156 C 582.4375 400.347656 569.992188 392.25 550.699219 392.25 C 531.011719 392.25 518.542969 404.675781 518.542969 420.910156 C 518.542969 440.972656 531.03125 449.089844 559.855469 461.515625 L 576.652344 468.675781 C 633.78125 493.003906 666 517.855469 666 573.714844 C 666 633.90625 618.464844 666.894531 554.652344 666.894531 C 492.238281 666.894531 456.792969 635.570312 437.0625 596.796875 Z M 248.75 563.433594 C 259.28125 582.289062 275.285156 596.796875 298.304688 596.796875 C 320.324219 596.796875 333 588.097656 333 554.277344 L 333 333.894531 L 402.367188 333.894531 L 402.367188 564.933594 C 402.367188 635.007812 361.722656 666.894531 302.363281 666.894531 C 248.730469 666.894531 210.019531 630.554688 194.242188 596.796875 Z M 248.75 563.433594 " fill-opacity="1" fill-rule="nonzero"/></svg>