<svg xmlns="http://www.w3.org/2000/svg" xmlns:xlink="http://www.w3.org/1999/xlink" width="1000" zoomAndPan="magnify"
        viewBox="0 0 750 749.999995" height="1000" preserveAspectRatio="xMidYMid meet" version="1.0">
        <defs>
            <clipPath id="f0f973e8a1">
                <path d="M 280 8.277344 L 471 8.277344 L 471 412 L 280 412 Z M 280 8.277344 " clip-rule="nonzero" />
            </clipPath>
        </defs>
        <path fill="#5382a1"
            d="M 280.285156 577.039062 C 280.285156 577.039062 252.175781 593.394531 300.292969 598.929688 C 358.59375 605.574219 388.371094 604.617188 452.609375 592.457031 C 452.609375 592.457031 469.496094 603.042969 493.097656 612.21875 C 349.09375 673.9375 167.179688 608.640625 280.285156 577.039062 "
            fill-opacity="1" fill-rule="nonzero" />
        <path fill="#5382a1" 
            d="M 262.6875 496.515625 C 262.6875 496.515625 231.160156 519.859375 279.3125 524.839844 C 341.578125 531.25 390.753906 531.785156 475.84375 515.386719 C 475.84375 515.386719 487.625 527.332031 506.132812 533.851562 C 332.011719 584.75 138.085938 537.875 262.683594 496.515625 "
            fill-opacity="1" fill-rule="nonzero" />
        <path fill="#e76f00" 
            d="M 411.03125 359.902344 C 446.515625 400.769531 401.703125 437.527344 401.703125 437.527344 C 401.703125 437.527344 491.820312 391.015625 450.433594 332.769531 C 411.777344 278.464844 382.152344 251.480469 542.59375 158.449219 C 542.59375 158.449219 290.757812 221.328125 411.03125 359.902344 "
            fill-opacity="1" fill-rule="nonzero" />
        <path fill="#5382a1" 
            d="M 601.488281 636.605469 C 601.488281 636.605469 622.296875 653.75 578.589844 667.015625 C 495.460938 692.1875 232.609375 699.789062 159.597656 668.015625 C 133.359375 656.601562 182.578125 640.757812 198.0625 637.414062 C 214.207031 633.921875 223.4375 634.582031 223.4375 634.582031 C 194.246094 614.007812 34.765625 674.9375 142.429688 692.402344 C 436.035156 740 677.648438 670.957031 601.484375 636.605469 "
            fill-opacity="1" fill-rule="nonzero" />
        <path fill="#5382a1" 
            d="M 293.804688 413.078125 C 293.804688 413.078125 160.105469 444.832031 246.460938 456.351562 C 282.917969 461.25 355.613281 460.144531 423.300781 454.457031 C 478.636719 449.792969 534.203125 439.871094 534.203125 439.871094 C 534.203125 439.871094 514.695312 448.238281 500.574219 457.863281 C 364.792969 493.578125 102.515625 476.96875 178.023438 440.445312 C 241.882812 409.585938 293.804688 413.078125 293.804688 413.078125 "
            fill-opacity="1" fill-rule="nonzero" />
        <path fill="#5382a1" 
            d="M 533.648438 547.117188 C 671.667969 475.414062 607.835938 406.5 563.296875 415.785156 C 552.394531 418.0625 547.515625 420.019531 547.515625 420.019531 C 547.515625 420.019531 551.5625 413.675781 559.316406 410.929688 C 647.429688 379.964844 715.203125 502.289062 530.859375 550.738281 C 530.859375 550.738281 533.011719 548.820312 533.648438 547.117188 "
            fill-opacity="1" fill-rule="nonzero" />
        <g clip-path="url(#f0f973e8a1)">
            <path fill="#e76f00" 
                d="M 450.433594 8.21875 C 450.433594 8.21875 526.878906 84.667969 377.933594 202.230469 C 258.511719 296.523438 350.714844 350.296875 377.890625 411.738281 C 308.175781 348.851562 257.019531 293.480469 291.339844 241.964844 C 341.726562 166.324219 481.277344 129.65625 450.433594 8.214844 "
                fill-opacity="1" fill-rule="nonzero" />
        </g>
        <path fill="#5382a1" 
            d="M 307.367188 741.445312 C 439.847656 749.921875 643.273438 736.738281 648.085938 674.066406 C 648.085938 674.066406 638.820312 697.808594 538.609375 716.679688 C 425.53125 737.953125 286.066406 735.484375 203.363281 721.832031 C 203.363281 721.832031 220.292969 735.84375 307.363281 741.445312 "
            fill-opacity="1" fill-rule="nonzero" />
    </svg>