<svg xmlns="http://www.w3.org/2000/svg" xmlns:xlink="http://www.w3.org/1999/xlink" width="1000" zoomAndPan="magnify" viewBox="0 0 750 749.999995" height="1000" preserveAspectRatio="xMidYMid meet" version="1.0"><path fill="#8cc84b" d="M 343.503906 9.976562 C 362.191406 -0.609375 386.015625 -0.652344 404.234375 9.976562 L 683.21875 167.289062 C 700.667969 177.101562 712.34375 196.566406 712.183594 216.683594 L 712.183594 532.101562 C 712.300781 553.0625 699.476562 572.945312 681.070312 582.570312 L 403.582031 739.160156 C 401.21875 740.464844 398.78125 741.609375 396.265625 742.589844 C 393.75 743.570312 391.183594 744.378906 388.558594 745.015625 C 385.9375 745.65625 383.285156 746.117188 380.601562 746.398438 C 377.917969 746.683594 375.226562 746.789062 372.527344 746.714844 C 369.832031 746.640625 367.148438 746.386719 364.484375 745.953125 C 361.820312 745.523438 359.195312 744.914062 356.613281 744.132812 C 354.03125 743.351562 351.511719 742.398438 349.054688 741.28125 C 346.597656 740.164062 344.226562 738.886719 341.941406 737.453125 L 258.671875 689.324219 C 252.996094 685.933594 246.617188 683.246094 242.601562 677.757812 C 246.148438 672.992188 252.457031 672.382812 257.59375 670.28125 C 269.179688 666.589844 279.785156 660.933594 290.4375 654.953125 C 293.121094 653.085938 296.417969 653.785156 298.984375 655.46875 L 369.992188 696.542969 C 375.0625 699.460938 380.199219 695.605469 384.542969 693.152344 L 657.011719 539.347656 C 660.375 537.710938 662.242188 534.160156 661.964844 530.46875 L 661.964844 218.085938 C 662.335938 213.878906 659.929688 210.046875 656.125 208.339844 L 379.335938 52.429688 C 378.539062 51.878906 377.675781 51.457031 376.75 51.167969 C 375.824219 50.878906 374.878906 50.730469 373.910156 50.730469 C 372.9375 50.726562 371.992188 50.867188 371.0625 51.15625 C 370.136719 51.441406 369.273438 51.859375 368.472656 52.40625 L 92.082031 208.644531 C 88.347656 210.351562 85.777344 214.136719 86.242188 218.339844 L 86.242188 530.722656 C 85.917969 534.414062 87.878906 537.898438 91.265625 539.484375 L 165.121094 581.191406 C 178.996094 588.667969 196.023438 592.875 211.300781 587.382812 C 212.960938 586.757812 214.566406 586.007812 216.113281 585.136719 C 217.664062 584.269531 219.136719 583.285156 220.535156 582.191406 C 221.933594 581.097656 223.242188 579.902344 224.457031 578.609375 C 225.675781 577.316406 226.785156 575.9375 227.792969 574.476562 C 228.800781 573.011719 229.691406 571.484375 230.46875 569.882812 C 231.242188 568.285156 231.894531 566.640625 232.417969 564.941406 C 232.941406 563.246094 233.335938 561.519531 233.597656 559.761719 C 233.859375 558.003906 233.988281 556.238281 233.980469 554.460938 L 234.050781 243.949219 C 233.722656 239.347656 238.070312 235.539062 242.53125 236.003906 L 278.035156 236.003906 C 282.703125 235.886719 286.371094 240.839844 285.742188 245.46875 L 285.671875 557.945312 C 285.695312 585.699219 274.296875 615.886719 248.625 629.507812 C 217 645.863281 177.898438 642.429688 146.648438 626.707031 L 67.230469 582.78125 C 48.542969 573.433594 36 553.246094 36.117188 532.3125 L 36.117188 216.890625 C 36.136719 214.339844 36.324219 211.800781 36.683594 209.277344 C 37.039062 206.75 37.5625 204.257812 38.253906 201.800781 C 38.941406 199.34375 39.792969 196.945312 40.800781 194.601562 C 41.808594 192.257812 42.96875 189.988281 44.277344 187.800781 C 45.589844 185.613281 47.039062 183.519531 48.628906 181.523438 C 50.21875 179.527344 51.929688 177.644531 53.769531 175.878906 C 55.609375 174.109375 57.558594 172.472656 59.617188 170.964844 C 61.675781 169.457031 63.824219 168.089844 66.0625 166.867188 Z M 423.949219 228.621094 C 464.289062 226.285156 507.476562 227.078125 543.773438 246.960938 C 571.871094 262.195312 587.453125 294.160156 587.964844 325.421875 C 587.171875 329.625 582.78125 331.960938 578.761719 331.660156 C 567.085938 331.636719 555.359375 331.824219 543.632812 331.589844 C 538.65625 331.777344 535.785156 327.195312 535.15625 322.804688 C 531.792969 307.851562 523.640625 293.0625 509.578125 285.839844 C 487.996094 275.023438 462.957031 275.5625 439.410156 275.792969 C 422.21875 276.730469 403.746094 278.199219 389.191406 288.292969 C 377.980469 295.957031 374.617188 311.660156 378.613281 323.855469 C 382.347656 332.804688 392.695312 335.675781 401.128906 338.339844 C 449.757812 351.050781 501.261719 350.023438 548.980469 366.542969 C 568.71875 373.363281 588.035156 386.636719 594.808594 407.3125 C 603.640625 435.023438 599.785156 468.152344 580.09375 490.398438 C 564.117188 508.714844 540.855469 518.433594 517.613281 524.089844 C 486.710938 530.980469 454.664062 531.144531 423.292969 528.0625 C 393.792969 524.695312 363.101562 516.9375 340.328125 496.847656 C 320.847656 479.929688 311.363281 453.574219 312.300781 428.152344 C 312.53125 423.855469 316.808594 420.863281 320.941406 421.214844 L 355.976562 421.214844 C 360.695312 420.886719 364.152344 424.953125 364.386719 429.390625 C 366.558594 443.410156 371.90625 458.597656 384.335938 466.777344 C 408.300781 482.242188 438.359375 481.167969 465.78125 481.613281 C 488.507812 480.609375 514.015625 480.304688 532.585938 465.257812 C 542.394531 456.683594 545.269531 442.359375 542.628906 430.023438 C 539.757812 419.601562 528.613281 414.765625 519.269531 411.332031 C 471.269531 396.144531 419.183594 401.660156 371.652344 384.460938 C 352.359375 377.640625 333.695312 364.742188 326.289062 344.90625 C 315.941406 316.867188 320.683594 282.125 342.476562 260.628906 C 363.5 239.253906 394.332031 231.003906 423.527344 228.0625 Z M 423.949219 228.621094 " fill-opacity="1" fill-rule="nonzero"/></svg>