<svg xmlns="http://www.w3.org/2000/svg" xmlns:xlink="http://www.w3.org/1999/xlink" width="1000" zoomAndPan="magnify" viewBox="0 0 750 749.999995" height="1000" preserveAspectRatio="xMidYMid meet" version="1.0"><defs><clipPath id="43dc915302"><path d="M 0 180 L 750 180 L 750 570 L 0 570 Z M 0 180 " clip-rule="nonzero"/></clipPath><clipPath id="3f8d0ac6fe"><path d="M 0 374.992188 C 0 482.464844 167.898438 569.59375 374.996094 569.59375 C 582.09375 569.59375 749.996094 482.464844 749.996094 374.992188 C 749.996094 267.519531 582.09375 180.390625 374.996094 180.390625 C 167.898438 180.390625 0 267.523438 0 374.992188 " clip-rule="nonzero"/></clipPath><clipPath id="2ab6a08381"><path d="M 0 374.992188 C 0 482.464844 167.898438 569.59375 374.996094 569.59375 C 582.09375 569.59375 749.996094 482.464844 749.996094 374.992188 C 749.996094 267.519531 582.09375 180.390625 374.996094 180.390625 C 167.898438 180.390625 0 267.523438 0 374.992188 " clip-rule="nonzero"/></clipPath><radialGradient gradientTransform="matrix(1.006793, 0, 0, 0.993207, 225.150531, 248.802688)" gradientUnits="userSpaceOnUse" r="489.105987" cx="0" id="eef141750a" cy="0" fx="0" fy="0"><stop stop-opacity="1" stop-color="rgb(68.199158%, 69.799805%, 83.499146%)" offset="0"/><stop stop-opacity="1" stop-color="rgb(68.199158%, 69.799805%, 83.499146%)" offset="0.25"/><stop stop-opacity="1" stop-color="rgb(68.164062%, 69.764709%, 83.473206%)" offset="0.296875"/><stop stop-opacity="1" stop-color="rgb(67.956543%, 69.555664%, 83.317566%)" offset="0.300781"/><stop stop-opacity="1" stop-color="rgb(67.608643%, 69.20929%, 83.059692%)" offset="0.304688"/><stop stop-opacity="1" stop-color="rgb(67.260742%, 68.861389%, 82.800293%)" offset="0.308594"/><stop stop-opacity="1" stop-color="rgb(66.914368%, 68.513489%, 82.542419%)" offset="0.3125"/><stop stop-opacity="1" stop-color="rgb(66.566467%, 68.167114%, 82.28302%)" offset="0.316406"/><stop stop-opacity="1" stop-color="rgb(66.220093%, 67.819214%, 82.025146%)" offset="0.320312"/><stop stop-opacity="1" stop-color="rgb(65.872192%, 67.472839%, 81.765747%)" offset="0.324219"/><stop stop-opacity="1" stop-color="rgb(65.525818%, 67.124939%, 81.506348%)" offset="0.328125"/><stop stop-opacity="1" stop-color="rgb(65.177917%, 66.778564%, 81.248474%)" offset="0.332031"/><stop stop-opacity="1" stop-color="rgb(64.831543%, 66.430664%, 80.989075%)" offset="0.335938"/><stop stop-opacity="1" stop-color="rgb(64.483643%, 66.08429%, 80.731201%)" offset="0.339844"/><stop stop-opacity="1" stop-color="rgb(64.135742%, 65.736389%, 80.471802%)" offset="0.34375"/><stop stop-opacity="1" stop-color="rgb(63.789368%, 65.388489%, 80.213928%)" offset="0.347656"/><stop stop-opacity="1" stop-color="rgb(63.441467%, 65.042114%, 79.954529%)" offset="0.351562"/><stop stop-opacity="1" stop-color="rgb(63.095093%, 64.694214%, 79.696655%)" offset="0.355469"/><stop stop-opacity="1" stop-color="rgb(62.747192%, 64.347839%, 79.437256%)" offset="0.359375"/><stop stop-opacity="1" stop-color="rgb(62.400818%, 63.999939%, 79.179382%)" offset="0.363281"/><stop stop-opacity="1" stop-color="rgb(62.052917%, 63.653564%, 78.919983%)" offset="0.367188"/><stop stop-opacity="1" stop-color="rgb(61.706543%, 63.305664%, 78.662109%)" offset="0.371094"/><stop stop-opacity="1" stop-color="rgb(61.358643%, 62.95929%, 78.40271%)" offset="0.375"/><stop stop-opacity="1" stop-color="rgb(61.010742%, 62.611389%, 78.144836%)" offset="0.378906"/><stop stop-opacity="1" stop-color="rgb(60.664368%, 62.263489%, 77.885437%)" offset="0.382812"/><stop stop-opacity="1" stop-color="rgb(60.316467%, 61.917114%, 77.627563%)" offset="0.386719"/><stop stop-opacity="1" stop-color="rgb(59.970093%, 61.569214%, 77.368164%)" offset="0.390625"/><stop stop-opacity="1" stop-color="rgb(59.622192%, 61.222839%, 77.108765%)" offset="0.394531"/><stop stop-opacity="1" stop-color="rgb(59.275818%, 60.874939%, 76.850891%)" offset="0.398438"/><stop stop-opacity="1" stop-color="rgb(58.927917%, 60.528564%, 76.591492%)" offset="0.402344"/><stop stop-opacity="1" stop-color="rgb(58.581543%, 60.180664%, 76.333618%)" offset="0.40625"/><stop stop-opacity="1" stop-color="rgb(58.233643%, 59.83429%, 76.074219%)" offset="0.410156"/><stop stop-opacity="1" stop-color="rgb(57.885742%, 59.486389%, 75.816345%)" offset="0.414062"/><stop stop-opacity="1" stop-color="rgb(57.539368%, 59.138489%, 75.556946%)" offset="0.417969"/><stop stop-opacity="1" stop-color="rgb(57.191467%, 58.792114%, 75.299072%)" offset="0.421875"/><stop stop-opacity="1" stop-color="rgb(56.845093%, 58.444214%, 75.039673%)" offset="0.425781"/><stop stop-opacity="1" stop-color="rgb(56.497192%, 58.097839%, 74.781799%)" offset="0.429688"/><stop stop-opacity="1" stop-color="rgb(56.150818%, 57.749939%, 74.5224%)" offset="0.433594"/><stop stop-opacity="1" stop-color="rgb(55.802917%, 57.403564%, 74.264526%)" offset="0.4375"/><stop stop-opacity="1" stop-color="rgb(55.456543%, 57.055664%, 74.005127%)" offset="0.441406"/><stop stop-opacity="1" stop-color="rgb(55.108643%, 56.70929%, 73.747253%)" offset="0.445312"/><stop stop-opacity="1" stop-color="rgb(54.760742%, 56.361389%, 73.487854%)" offset="0.449219"/><stop stop-opacity="1" stop-color="rgb(54.414368%, 56.013489%, 73.22998%)" offset="0.453125"/><stop stop-opacity="1" stop-color="rgb(54.066467%, 55.667114%, 72.970581%)" offset="0.457031"/><stop stop-opacity="1" stop-color="rgb(53.720093%, 55.319214%, 72.711182%)" offset="0.460938"/><stop stop-opacity="1" stop-color="rgb(53.372192%, 54.972839%, 72.453308%)" offset="0.464844"/><stop stop-opacity="1" stop-color="rgb(53.025818%, 54.624939%, 72.193909%)" offset="0.46875"/><stop stop-opacity="1" stop-color="rgb(52.677917%, 54.278564%, 71.936035%)" offset="0.472656"/><stop stop-opacity="1" stop-color="rgb(52.331543%, 53.930664%, 71.676636%)" offset="0.476562"/><stop stop-opacity="1" stop-color="rgb(51.983643%, 53.58429%, 71.418762%)" offset="0.480469"/><stop stop-opacity="1" stop-color="rgb(51.635742%, 53.236389%, 71.159363%)" offset="0.484375"/><stop stop-opacity="1" stop-color="rgb(51.289368%, 52.888489%, 70.901489%)" offset="0.488281"/><stop stop-opacity="1" stop-color="rgb(50.941467%, 52.542114%, 70.64209%)" offset="0.492188"/><stop stop-opacity="1" stop-color="rgb(50.595093%, 52.194214%, 70.384216%)" offset="0.496094"/><stop stop-opacity="1" stop-color="rgb(50.247192%, 51.847839%, 70.124817%)" offset="0.5"/><stop stop-opacity="1" stop-color="rgb(49.900818%, 51.499939%, 69.866943%)" offset="0.503906"/><stop stop-opacity="1" stop-color="rgb(49.552917%, 51.153564%, 69.607544%)" offset="0.507812"/><stop stop-opacity="1" stop-color="rgb(49.206543%, 50.805664%, 69.34967%)" offset="0.511719"/><stop stop-opacity="1" stop-color="rgb(48.858643%, 50.45929%, 69.090271%)" offset="0.515625"/><stop stop-opacity="1" stop-color="rgb(48.510742%, 50.111389%, 68.832397%)" offset="0.519531"/><stop stop-opacity="1" stop-color="rgb(48.164368%, 49.763489%, 68.572998%)" offset="0.523438"/><stop stop-opacity="1" stop-color="rgb(47.816467%, 49.417114%, 68.313599%)" offset="0.527344"/><stop stop-opacity="1" stop-color="rgb(47.470093%, 49.069214%, 68.055725%)" offset="0.53125"/><stop stop-opacity="1" stop-color="rgb(47.122192%, 48.722839%, 67.796326%)" offset="0.535156"/><stop stop-opacity="1" stop-color="rgb(46.775818%, 48.374939%, 67.538452%)" offset="0.539062"/><stop stop-opacity="1" stop-color="rgb(46.427917%, 48.028564%, 67.279053%)" offset="0.542969"/><stop stop-opacity="1" stop-color="rgb(46.081543%, 47.680664%, 67.021179%)" offset="0.546875"/><stop stop-opacity="1" stop-color="rgb(45.733643%, 47.33429%, 66.76178%)" offset="0.550781"/><stop stop-opacity="1" stop-color="rgb(45.385742%, 46.986389%, 66.503906%)" offset="0.554688"/><stop stop-opacity="1" stop-color="rgb(45.039368%, 46.638489%, 66.244507%)" offset="0.558594"/><stop stop-opacity="1" stop-color="rgb(44.691467%, 46.292114%, 65.986633%)" offset="0.5625"/><stop stop-opacity="1" stop-color="rgb(44.345093%, 45.944214%, 65.727234%)" offset="0.566406"/><stop stop-opacity="1" stop-color="rgb(43.997192%, 45.597839%, 65.46936%)" offset="0.570312"/><stop stop-opacity="1" stop-color="rgb(43.650818%, 45.249939%, 65.209961%)" offset="0.574219"/><stop stop-opacity="1" stop-color="rgb(43.302917%, 44.903564%, 64.952087%)" offset="0.578125"/><stop stop-opacity="1" stop-color="rgb(42.956543%, 44.555664%, 64.692688%)" offset="0.582031"/><stop stop-opacity="1" stop-color="rgb(42.608643%, 44.20929%, 64.434814%)" offset="0.585938"/><stop stop-opacity="1" stop-color="rgb(42.260742%, 43.861389%, 64.175415%)" offset="0.589844"/><stop stop-opacity="1" stop-color="rgb(41.914368%, 43.513489%, 63.916016%)" offset="0.59375"/><stop stop-opacity="1" stop-color="rgb(41.566467%, 43.167114%, 63.658142%)" offset="0.597656"/><stop stop-opacity="1" stop-color="rgb(41.220093%, 42.819214%, 63.398743%)" offset="0.601562"/><stop stop-opacity="1" stop-color="rgb(40.872192%, 42.472839%, 63.140869%)" offset="0.605469"/><stop stop-opacity="1" stop-color="rgb(40.525818%, 42.124939%, 62.88147%)" offset="0.609375"/><stop stop-opacity="1" stop-color="rgb(40.177917%, 41.778564%, 62.623596%)" offset="0.613281"/><stop stop-opacity="1" stop-color="rgb(39.831543%, 41.430664%, 62.364197%)" offset="0.617188"/><stop stop-opacity="1" stop-color="rgb(39.483643%, 41.08429%, 62.106323%)" offset="0.621094"/><stop stop-opacity="1" stop-color="rgb(39.135742%, 40.736389%, 61.846924%)" offset="0.625"/><stop stop-opacity="1" stop-color="rgb(38.789368%, 40.388489%, 61.58905%)" offset="0.628906"/><stop stop-opacity="1" stop-color="rgb(38.441467%, 40.042114%, 61.329651%)" offset="0.632812"/><stop stop-opacity="1" stop-color="rgb(38.095093%, 39.694214%, 61.071777%)" offset="0.636719"/><stop stop-opacity="1" stop-color="rgb(37.747192%, 39.347839%, 60.812378%)" offset="0.640625"/><stop stop-opacity="1" stop-color="rgb(37.400818%, 38.999939%, 60.554504%)" offset="0.644531"/><stop stop-opacity="1" stop-color="rgb(37.052917%, 38.653564%, 60.295105%)" offset="0.648438"/><stop stop-opacity="1" stop-color="rgb(36.706543%, 38.305664%, 60.037231%)" offset="0.652344"/><stop stop-opacity="1" stop-color="rgb(36.358643%, 37.95929%, 59.777832%)" offset="0.65625"/><stop stop-opacity="1" stop-color="rgb(36.010742%, 37.611389%, 59.518433%)" offset="0.660156"/><stop stop-opacity="1" stop-color="rgb(35.664368%, 37.263489%, 59.260559%)" offset="0.664062"/><stop stop-opacity="1" stop-color="rgb(35.316467%, 36.917114%, 59.00116%)" offset="0.667969"/><stop stop-opacity="1" stop-color="rgb(34.970093%, 36.569214%, 58.743286%)" offset="0.671875"/><stop stop-opacity="1" stop-color="rgb(34.622192%, 36.222839%, 58.483887%)" offset="0.675781"/><stop stop-opacity="1" stop-color="rgb(34.275818%, 35.874939%, 58.226013%)" offset="0.679688"/><stop stop-opacity="1" stop-color="rgb(33.927917%, 35.528564%, 57.966614%)" offset="0.683594"/><stop stop-opacity="1" stop-color="rgb(33.581543%, 35.180664%, 57.70874%)" offset="0.6875"/><stop stop-opacity="1" stop-color="rgb(33.233643%, 34.83429%, 57.449341%)" offset="0.691406"/><stop stop-opacity="1" stop-color="rgb(32.885742%, 34.486389%, 57.191467%)" offset="0.695312"/><stop stop-opacity="1" stop-color="rgb(32.539368%, 34.138489%, 56.932068%)" offset="0.699219"/><stop stop-opacity="1" stop-color="rgb(32.191467%, 33.792114%, 56.674194%)" offset="0.703125"/><stop stop-opacity="1" stop-color="rgb(31.845093%, 33.444214%, 56.414795%)" offset="0.707031"/><stop stop-opacity="1" stop-color="rgb(31.497192%, 33.097839%, 56.156921%)" offset="0.710938"/><stop stop-opacity="1" stop-color="rgb(31.150818%, 32.749939%, 55.897522%)" offset="0.714844"/><stop stop-opacity="1" stop-color="rgb(30.802917%, 32.403564%, 55.639648%)" offset="0.71875"/><stop stop-opacity="1" stop-color="rgb(30.456543%, 32.055664%, 55.380249%)" offset="0.722656"/><stop stop-opacity="1" stop-color="rgb(30.108643%, 31.70929%, 55.122375%)" offset="0.726562"/><stop stop-opacity="1" stop-color="rgb(29.760742%, 31.361389%, 54.862976%)" offset="0.730469"/><stop stop-opacity="1" stop-color="rgb(29.414368%, 31.013489%, 54.603577%)" offset="0.734375"/><stop stop-opacity="1" stop-color="rgb(29.066467%, 30.667114%, 54.345703%)" offset="0.738281"/><stop stop-opacity="1" stop-color="rgb(28.720093%, 30.319214%, 54.086304%)" offset="0.742188"/><stop stop-opacity="1" stop-color="rgb(28.372192%, 29.972839%, 53.82843%)" offset="0.746094"/><stop stop-opacity="1" stop-color="rgb(28.199768%, 29.798889%, 53.69873%)" offset="1"/></radialGradient></defs><g clip-path="url(#43dc915302)"><g clip-path="url(#3f8d0ac6fe)"><g clip-path="url(#2ab6a08381)"><path fill="url(#eef141750a)" d="M 0 180.390625 L 0 569.59375 L 749.996094 569.59375 L 749.996094 180.390625 Z M 0 180.390625 " fill-rule="nonzero"/></g></g></g><path fill="#777bb3" d="M 374.996094 555.144531 C 574.011719 555.144531 735.347656 474.488281 735.347656 374.992188 C 735.347656 275.496094 574.011719 194.839844 374.996094 194.839844 C 175.984375 194.839844 14.648438 275.496094 14.648438 374.992188 C 14.648438 474.488281 175.984375 555.144531 374.996094 555.144531 " fill-opacity="1" fill-rule="nonzero"/><path fill="#000000" d="M 203.734375 397.324219 C 220.097656 397.324219 232.316406 394.347656 240.042969 388.480469 C 247.691406 382.671875 252.972656 372.609375 255.738281 358.570312 C 258.320312 345.449219 257.335938 336.289062 252.816406 331.34375 C 248.195312 326.292969 238.207031 323.734375 223.125 323.734375 L 196.972656 323.734375 L 182.476562 397.324219 Z M 118.203125 487.980469 C 116.988281 487.980469 115.835938 487.445312 115.066406 486.519531 C 114.679688 486.054688 114.410156 485.535156 114.261719 484.953125 C 114.113281 484.371094 114.09375 483.789062 114.210938 483.199219 L 152.632812 288.183594 C 152.722656 287.726562 152.890625 287.296875 153.128906 286.894531 C 153.371094 286.496094 153.675781 286.148438 154.039062 285.851562 C 154.402344 285.554688 154.808594 285.328125 155.253906 285.171875 C 155.695312 285.011719 156.15625 284.933594 156.628906 284.933594 L 239.4375 284.933594 C 265.460938 284.933594 284.832031 291.890625 297.007812 305.65625 C 309.25 319.480469 313.03125 338.800781 308.242188 363.085938 C 306.296875 372.976562 302.945312 382.164062 298.289062 390.394531 C 293.621094 398.628906 287.457031 406.25 279.964844 413.046875 C 270.992188 421.332031 260.835938 427.339844 249.804688 430.875 C 238.949219 434.363281 225.011719 436.132812 208.371094 436.132812 L 174.839844 436.132812 L 165.265625 484.734375 C 165.175781 485.191406 165.007812 485.617188 164.765625 486.019531 C 164.527344 486.417969 164.222656 486.769531 163.859375 487.0625 C 163.496094 487.359375 163.089844 487.585938 162.644531 487.746094 C 162.203125 487.902344 161.742188 487.980469 161.273438 487.980469 L 118.195312 487.980469 Z M 118.203125 487.980469 " fill-opacity="1" fill-rule="nonzero"/><path fill="#ffffff" d="M 200.328125 327.746094 L 223.125 327.746094 C 241.328125 327.746094 247.652344 331.6875 249.800781 334.035156 C 253.367188 337.933594 254.039062 346.15625 251.75 357.808594 C 249.171875 370.851562 244.402344 380.101562 237.5625 385.296875 C 230.5625 390.613281 219.179688 393.308594 203.738281 393.308594 L 187.421875 393.308594 L 200.335938 327.746094 Z M 239.433594 280.914062 L 156.628906 280.914062 C 156.160156 280.914062 155.695312 280.957031 155.234375 281.035156 C 154.773438 281.113281 154.320312 281.230469 153.878906 281.386719 C 153.4375 281.542969 153.015625 281.738281 152.605469 281.964844 C 152.199219 282.195312 151.816406 282.453125 151.453125 282.75 C 151.089844 283.042969 150.757812 283.367188 150.453125 283.714844 C 150.148438 284.066406 149.875 284.441406 149.636719 284.839844 C 149.394531 285.234375 149.191406 285.652344 149.027344 286.082031 C 148.859375 286.515625 148.730469 286.957031 148.640625 287.410156 L 110.21875 482.441406 C 110.105469 483.023438 110.058594 483.609375 110.074219 484.203125 C 110.089844 484.792969 110.175781 485.375 110.320312 485.949219 C 110.46875 486.523438 110.679688 487.074219 110.949219 487.601562 C 111.222656 488.128906 111.546875 488.621094 111.929688 489.078125 C 112.3125 489.535156 112.738281 489.945312 113.210938 490.308594 C 113.6875 490.671875 114.195312 490.980469 114.738281 491.234375 C 115.28125 491.484375 115.84375 491.675781 116.429688 491.804688 C 117.015625 491.9375 117.609375 492 118.207031 492 L 161.273438 492 C 161.742188 492 162.207031 491.960938 162.667969 491.882812 C 163.128906 491.800781 163.582031 491.683594 164.023438 491.527344 C 164.460938 491.371094 164.886719 491.179688 165.292969 490.953125 C 165.703125 490.722656 166.085938 490.460938 166.449219 490.167969 C 166.808594 489.875 167.144531 489.550781 167.449219 489.199219 C 167.753906 488.847656 168.027344 488.476562 168.265625 488.078125 C 168.503906 487.679688 168.707031 487.265625 168.875 486.832031 C 169.042969 486.402344 169.171875 485.957031 169.261719 485.503906 L 178.195312 440.152344 L 208.375 440.152344 C 225.4375 440.152344 239.804688 438.316406 251.070312 434.695312 C 262.65625 430.984375 273.316406 424.6875 282.746094 415.984375 C 290.546875 408.90625 296.988281 400.957031 301.84375 392.359375 C 306.699219 383.765625 310.210938 374.171875 312.246094 363.859375 C 317.28125 338.296875 313.191406 317.828125 300.078125 303.023438 C 287.09375 288.363281 266.695312 280.925781 239.441406 280.925781 M 177.550781 401.351562 L 203.742188 401.351562 C 221.105469 401.351562 234.039062 398.125 242.535156 391.671875 C 251.03125 385.214844 256.765625 374.441406 259.742188 359.347656 C 262.59375 344.855469 261.296875 334.625 255.851562 328.667969 C 250.40625 322.707031 239.492188 319.730469 223.136719 319.730469 L 193.628906 319.730469 L 177.550781 401.347656 M 239.445312 288.953125 C 264.355469 288.953125 282.527344 295.402344 293.953125 308.300781 C 305.375 321.199219 308.8125 339.207031 304.253906 362.324219 C 302.378906 371.847656 299.207031 380.554688 294.742188 388.441406 C 290.273438 396.332031 284.429688 403.554688 277.214844 410.097656 C 268.617188 418.035156 259.0625 423.691406 248.550781 427.0625 C 238.039062 430.441406 224.652344 432.125 208.375 432.125 L 171.488281 432.125 L 161.277344 483.972656 L 118.214844 483.972656 L 156.636719 288.96875 L 239.449219 288.96875 " fill-opacity="1" fill-rule="nonzero"/><path fill="#000000" d="M 406.980469 436.125 C 405.765625 436.125 404.613281 435.589844 403.839844 434.664062 C 403.070312 433.738281 402.753906 432.523438 402.988281 431.347656 L 419.980469 345.058594 C 421.597656 336.851562 421.199219 330.960938 418.859375 328.472656 C 417.425781 326.953125 413.125 324.398438 400.40625 324.398438 L 369.613281 324.398438 L 348.242188 432.875 C 348.152344 433.332031 347.988281 433.761719 347.746094 434.164062 C 347.503906 434.5625 347.203125 434.910156 346.839844 435.207031 C 346.472656 435.503906 346.070312 435.730469 345.625 435.890625 C 345.179688 436.046875 344.722656 436.125 344.25 436.125 L 301.523438 436.125 C 301.226562 436.125 300.929688 436.09375 300.636719 436.027344 C 300.34375 435.964844 300.0625 435.867188 299.789062 435.742188 C 299.519531 435.613281 299.265625 435.460938 299.027344 435.28125 C 298.789062 435.097656 298.578125 434.894531 298.386719 434.664062 C 298.195312 434.4375 298.03125 434.191406 297.894531 433.925781 C 297.761719 433.660156 297.65625 433.386719 297.582031 433.097656 C 297.507812 432.8125 297.464844 432.519531 297.457031 432.226562 C 297.449219 431.929688 297.472656 431.636719 297.53125 431.34375 L 335.953125 236.328125 C 336.042969 235.871094 336.210938 235.441406 336.449219 235.042969 C 336.691406 234.640625 336.996094 234.292969 337.359375 233.996094 C 337.722656 233.699219 338.128906 233.472656 338.574219 233.316406 C 339.015625 233.160156 339.476562 233.082031 339.949219 233.082031 L 382.671875 233.082031 C 382.972656 233.082031 383.269531 233.113281 383.5625 233.179688 C 383.855469 233.242188 384.136719 233.339844 384.40625 233.464844 C 384.679688 233.589844 384.933594 233.746094 385.167969 233.925781 C 385.40625 234.109375 385.621094 234.3125 385.8125 234.542969 C 386.003906 234.769531 386.164062 235.015625 386.300781 235.28125 C 386.4375 235.542969 386.542969 235.820312 386.617188 236.105469 C 386.6875 236.394531 386.730469 236.683594 386.738281 236.980469 C 386.746094 237.277344 386.722656 237.570312 386.667969 237.859375 L 377.394531 284.929688 L 410.519531 284.929688 C 435.753906 284.929688 452.863281 289.316406 462.832031 298.347656 C 473.003906 307.558594 476.160156 322.285156 472.253906 342.128906 L 454.378906 432.878906 C 454.289062 433.335938 454.121094 433.765625 453.878906 434.164062 C 453.640625 434.566406 453.335938 434.914062 452.972656 435.210938 C 452.609375 435.507812 452.203125 435.734375 451.757812 435.890625 C 451.3125 436.050781 450.855469 436.128906 450.382812 436.128906 L 406.980469 436.128906 Z M 406.980469 436.125 " fill-opacity="1" fill-rule="nonzero"/><path fill="#ffffff" d="M 382.675781 229.066406 L 339.949219 229.066406 C 339.480469 229.066406 339.015625 229.105469 338.554688 229.1875 C 338.09375 229.265625 337.640625 229.382812 337.199219 229.539062 C 336.757812 229.695312 336.335938 229.886719 335.925781 230.117188 C 335.519531 230.34375 335.136719 230.605469 334.773438 230.898438 C 334.410156 231.195312 334.078125 231.515625 333.773438 231.867188 C 333.46875 232.21875 333.195312 232.59375 332.957031 232.988281 C 332.714844 233.386719 332.511719 233.800781 332.347656 234.234375 C 332.179688 234.667969 332.050781 235.109375 331.960938 235.5625 L 293.539062 430.582031 C 293.425781 431.160156 293.375 431.746094 293.394531 432.339844 C 293.410156 432.929688 293.492188 433.515625 293.640625 434.085938 C 293.789062 434.660156 293.996094 435.210938 294.269531 435.742188 C 294.539062 436.269531 294.867188 436.761719 295.25 437.21875 C 295.628906 437.675781 296.058594 438.085938 296.53125 438.449219 C 297.003906 438.8125 297.515625 439.121094 298.058594 439.371094 C 298.601562 439.625 299.164062 439.816406 299.75 439.945312 C 300.335938 440.074219 300.929688 440.140625 301.527344 440.140625 L 344.253906 440.140625 C 344.722656 440.140625 345.1875 440.097656 345.648438 440.019531 C 346.109375 439.941406 346.5625 439.824219 347.003906 439.667969 C 347.445312 439.511719 347.867188 439.316406 348.273438 439.089844 C 348.683594 438.859375 349.066406 438.601562 349.429688 438.304688 C 349.789062 438.011719 350.125 437.6875 350.429688 437.339844 C 350.734375 436.988281 351.007812 436.613281 351.246094 436.214844 C 351.484375 435.820312 351.6875 435.402344 351.855469 434.972656 C 352.023438 434.539062 352.152344 434.097656 352.242188 433.644531 L 372.96875 328.414062 L 400.410156 328.414062 C 413.109375 328.414062 415.773438 331.089844 415.878906 331.203125 C 416.652344 332.019531 417.664062 335.808594 415.992188 344.289062 L 398.996094 430.582031 C 398.882812 431.160156 398.832031 431.746094 398.851562 432.339844 C 398.867188 432.929688 398.949219 433.515625 399.097656 434.089844 C 399.246094 434.660156 399.457031 435.210938 399.726562 435.742188 C 399.996094 436.269531 400.324219 436.761719 400.707031 437.21875 C 401.085938 437.675781 401.515625 438.085938 401.988281 438.449219 C 402.464844 438.8125 402.972656 439.121094 403.515625 439.371094 C 404.058594 439.625 404.621094 439.816406 405.207031 439.945312 C 405.792969 440.074219 406.386719 440.140625 406.984375 440.140625 L 450.386719 440.140625 C 450.855469 440.140625 451.320312 440.097656 451.785156 440.019531 C 452.246094 439.941406 452.695312 439.824219 453.136719 439.667969 C 453.578125 439.511719 454.003906 439.316406 454.410156 439.089844 C 454.816406 438.859375 455.203125 438.601562 455.5625 438.304688 C 455.925781 438.011719 456.257812 437.6875 456.566406 437.339844 C 456.871094 436.988281 457.140625 436.613281 457.382812 436.214844 C 457.621094 435.820312 457.824219 435.402344 457.992188 434.972656 C 458.160156 434.539062 458.289062 434.097656 458.375 433.644531 L 476.253906 342.890625 C 480.449219 321.589844 476.859375 305.609375 465.59375 295.390625 C 454.839844 285.652344 436.828125 280.914062 410.523438 280.914062 L 382.335938 280.914062 L 390.667969 238.625 C 390.78125 238.042969 390.832031 237.457031 390.8125 236.867188 C 390.796875 236.273438 390.714844 235.691406 390.566406 235.117188 C 390.417969 234.542969 390.210938 233.992188 389.9375 233.464844 C 389.667969 232.9375 389.339844 232.445312 388.957031 231.988281 C 388.578125 231.53125 388.148438 231.121094 387.675781 230.757812 C 387.203125 230.394531 386.691406 230.085938 386.148438 229.832031 C 385.605469 229.578125 385.042969 229.390625 384.457031 229.257812 C 383.871094 229.128906 383.277344 229.066406 382.679688 229.066406 M 382.679688 237.09375 L 372.464844 288.941406 L 410.527344 288.941406 C 434.476562 288.941406 450.992188 293.066406 460.085938 301.304688 C 469.179688 309.539062 471.902344 322.898438 468.269531 341.359375 L 450.390625 432.109375 L 406.988281 432.109375 L 423.984375 345.824219 C 425.917969 336.007812 425.207031 329.3125 421.847656 325.742188 C 418.492188 322.171875 411.34375 320.386719 400.414062 320.386719 L 366.261719 320.386719 L 344.253906 432.109375 L 301.527344 432.109375 L 339.949219 237.09375 L 382.675781 237.09375 " fill-opacity="1" fill-rule="nonzero"/><path fill="#000000" d="M 539.859375 397.324219 C 556.222656 397.324219 568.441406 394.347656 576.167969 388.480469 C 583.816406 382.671875 589.097656 372.609375 591.867188 358.570312 C 594.449219 345.449219 593.464844 336.289062 588.945312 331.34375 C 584.324219 326.292969 574.332031 323.734375 559.25 323.734375 L 533.097656 323.734375 L 518.601562 397.324219 Z M 454.328125 487.976562 C 453.113281 487.976562 451.960938 487.441406 451.1875 486.511719 C 450.800781 486.050781 450.535156 485.53125 450.382812 484.949219 C 450.234375 484.367188 450.214844 483.785156 450.332031 483.195312 L 488.753906 288.179688 C 488.84375 287.722656 489.011719 287.292969 489.25 286.890625 C 489.492188 286.492188 489.796875 286.144531 490.160156 285.847656 C 490.527344 285.550781 490.929688 285.324219 491.375 285.167969 C 491.820312 285.007812 492.277344 284.929688 492.75 284.929688 L 575.558594 284.929688 C 601.585938 284.929688 620.953125 291.886719 633.132812 305.652344 C 645.371094 319.472656 649.148438 338.796875 644.367188 363.082031 C 642.414062 372.972656 639.066406 382.160156 634.40625 390.390625 C 629.742188 398.625 623.578125 406.246094 616.082031 413.042969 C 607.109375 421.328125 596.953125 427.335938 585.925781 430.871094 C 575.070312 434.359375 561.128906 436.128906 544.492188 436.128906 L 510.9375 436.128906 L 501.363281 484.730469 C 501.273438 485.1875 501.109375 485.613281 500.867188 486.015625 C 500.625 486.417969 500.320312 486.765625 499.957031 487.0625 C 499.59375 487.355469 499.1875 487.585938 498.742188 487.742188 C 498.300781 487.898438 497.839844 487.976562 497.367188 487.976562 L 454.304688 487.976562 Z M 454.328125 487.976562 " fill-opacity="1" fill-rule="nonzero"/><path fill="#ffffff" d="M 536.453125 327.746094 L 559.253906 327.746094 C 577.453125 327.746094 583.777344 331.6875 585.925781 334.035156 C 589.496094 337.933594 590.164062 346.15625 587.875 357.804688 C 585.300781 370.851562 580.527344 380.101562 573.6875 385.296875 C 566.6875 390.613281 555.304688 393.308594 539.863281 393.308594 L 523.542969 393.308594 L 536.457031 327.746094 Z M 575.558594 280.914062 L 492.75 280.914062 C 492.28125 280.914062 491.816406 280.957031 491.351562 281.035156 C 490.890625 281.113281 490.441406 281.230469 490 281.386719 C 489.558594 281.542969 489.132812 281.738281 488.726562 281.964844 C 488.320312 282.195312 487.933594 282.453125 487.574219 282.75 C 487.210938 283.042969 486.878906 283.367188 486.574219 283.714844 C 486.269531 284.066406 485.996094 284.441406 485.753906 284.839844 C 485.515625 285.234375 485.3125 285.652344 485.144531 286.082031 C 484.980469 286.515625 484.851562 286.957031 484.761719 287.410156 L 446.335938 482.441406 C 446.222656 483.023438 446.171875 483.609375 446.191406 484.203125 C 446.207031 484.792969 446.289062 485.375 446.4375 485.949219 C 446.585938 486.523438 446.796875 487.074219 447.066406 487.601562 C 447.335938 488.128906 447.664062 488.621094 448.046875 489.078125 C 448.425781 489.535156 448.855469 489.945312 449.328125 490.308594 C 449.800781 490.671875 450.308594 490.980469 450.851562 491.234375 C 451.394531 491.484375 451.960938 491.675781 452.546875 491.804688 C 453.132812 491.9375 453.722656 492 454.324219 492 L 497.386719 492 C 497.855469 492 498.320312 491.960938 498.78125 491.882812 C 499.246094 491.800781 499.695312 491.683594 500.136719 491.527344 C 500.578125 491.371094 501.003906 491.179688 501.410156 490.953125 C 501.816406 490.722656 502.203125 490.460938 502.5625 490.167969 C 502.925781 489.875 503.257812 489.550781 503.5625 489.199219 C 503.871094 488.847656 504.140625 488.476562 504.382812 488.078125 C 504.621094 487.679688 504.824219 487.265625 504.992188 486.832031 C 505.160156 486.402344 505.285156 485.957031 505.375 485.503906 L 514.308594 440.152344 L 544.488281 440.152344 C 561.554688 440.152344 575.921875 438.316406 587.1875 434.695312 C 598.769531 430.984375 609.429688 424.6875 618.863281 415.984375 C 626.664062 408.90625 633.089844 400.957031 637.957031 392.359375 C 642.828125 383.765625 646.328125 374.171875 648.359375 363.859375 C 653.398438 338.296875 649.304688 317.824219 636.191406 303.023438 C 623.210938 288.363281 602.808594 280.925781 575.554688 280.925781 M 513.664062 401.351562 L 539.859375 401.351562 C 557.21875 401.351562 570.152344 398.125 578.648438 391.671875 C 587.144531 385.214844 592.878906 374.441406 595.859375 359.347656 C 598.710938 344.855469 597.410156 334.625 591.964844 328.667969 C 586.519531 322.707031 575.609375 319.730469 559.25 319.730469 L 529.746094 319.730469 L 513.664062 401.347656 M 575.558594 288.953125 C 600.46875 288.953125 618.644531 295.402344 630.066406 308.300781 C 641.488281 321.199219 644.925781 339.207031 640.371094 362.324219 C 638.496094 371.847656 635.320312 380.554688 630.855469 388.441406 C 626.390625 396.332031 620.542969 403.554688 613.328125 410.097656 C 604.730469 418.035156 595.175781 423.691406 584.664062 427.0625 C 574.152344 430.441406 560.765625 432.125 544.492188 432.125 L 507.605469 432.125 L 497.390625 483.972656 L 454.328125 483.972656 L 492.75 288.957031 L 575.558594 288.957031 " fill-opacity="1" fill-rule="nonzero"/></svg>