<svg xmlns="http://www.w3.org/2000/svg" xmlns:xlink="http://www.w3.org/1999/xlink" width="1000" zoomAndPan="magnify" viewBox="0 0 750 749.999995" height="1000" preserveAspectRatio="xMidYMid meet" version="1.0"><defs><clipPath id="b809b6e9f8"><path d="M 0 2.046875 L 557 2.046875 L 557 560 L 0 560 Z M 0 2.046875 " clip-rule="nonzero"/></clipPath><clipPath id="adec3e6ef3"><path d="M 372.417969 1.964844 C 182.09375 1.964844 193.976562 84.496094 193.976562 84.496094 L 194.1875 170 L 375.792969 170 L 375.792969 195.667969 L 122.054688 195.667969 C 122.054688 195.667969 0.273438 181.859375 0.273438 373.878906 C 0.273438 565.917969 106.566406 559.105469 106.566406 559.105469 L 170.003906 559.105469 L 170.003906 469.988281 C 170.003906 469.988281 166.582031 363.695312 274.597656 363.695312 L 454.726562 363.695312 C 454.726562 363.695312 555.910156 365.335938 555.910156 265.894531 L 555.910156 101.46875 C 555.910156 101.46875 571.292969 1.964844 372.417969 1.964844 Z M 272.265625 59.460938 C 290.332031 59.460938 304.929688 74.066406 304.929688 92.132812 C 304.929688 110.203125 290.332031 124.808594 272.265625 124.808594 C 254.195312 124.808594 239.589844 110.203125 239.589844 92.132812 C 239.589844 74.066406 254.195312 59.460938 272.265625 59.460938 Z M 272.265625 59.460938 " clip-rule="nonzero"/></clipPath><clipPath id="bc0e1e5475"><path d="M 194 190 L 750 190 L 750 748 L 194 748 Z M 194 190 " clip-rule="nonzero"/></clipPath><clipPath id="260c079807"><path d="M 377.816406 747.738281 C 568.125 747.738281 556.234375 665.195312 556.234375 665.195312 L 556.03125 579.683594 L 374.414062 579.683594 L 374.414062 554.027344 L 628.152344 554.027344 C 628.152344 554.027344 749.945312 567.824219 749.945312 375.816406 C 749.945312 183.78125 643.652344 190.59375 643.652344 190.59375 L 580.21875 190.59375 L 580.21875 279.699219 C 580.21875 279.699219 583.621094 386.003906 475.628906 386.003906 L 295.480469 386.003906 C 295.480469 386.003906 194.289062 384.359375 194.289062 483.8125 L 194.289062 648.226562 C 194.289062 648.226562 178.921875 747.738281 377.816406 747.738281 Z M 477.945312 690.234375 C 459.894531 690.234375 445.273438 675.613281 445.273438 657.5625 C 445.273438 639.480469 459.894531 624.890625 477.945312 624.890625 C 496.027344 624.890625 510.617188 639.480469 510.617188 657.5625 C 510.617188 675.613281 496.027344 690.234375 477.945312 690.234375 Z M 477.945312 690.234375 " clip-rule="nonzero"/></clipPath></defs><g clip-path="url(#b809b6e9f8)"><g clip-path="url(#adec3e6ef3)"><path fill="#7ed957" d="M 0.273438 2.046875 L 0.273438 565.917969 L 571.292969 565.917969 L 571.292969 2.046875 Z M 0.273438 2.046875 " fill-opacity="1" fill-rule="nonzero"/></g></g><g clip-path="url(#bc0e1e5475)"><g clip-path="url(#260c079807)"><path fill="#7ed957" d="M 178.921875 183.78125 L 178.921875 747.738281 L 749.945312 747.738281 L 749.945312 183.78125 Z M 178.921875 183.78125 " fill-opacity="1" fill-rule="nonzero"/></g></g></svg>